<svg id="Layer_1" data-name="Layer 1" xmlns="http://www.w3.org/2000/svg" viewBox="0 0 260 228"><defs><style>.cls-1{fill:#fff;}</style></defs><path class="cls-1" d="M1090,654H830V426h260ZM880.39,508.53c-2.41,1.24-3.89,3.48-2,6.54s4.79,4.46,8,2.19a68.26,68.26,0,0,0,8.7-7.41c15.75-15.58,34.74-22.84,56.77-22.38,1.14,0,2.91.66,3.24,1.48a4.82,4.82,0,0,1-.38,4.07,43.65,43.65,0,0,1-6.19,6.49,62.52,62.52,0,0,0-17.84,26.09c-4.52,12.42-4.78,24.93.75,37,5.8,12.68,16.91,20.61,27.23,29.1,11.86-6.08,19-16.06,25.44-27a40.31,40.31,0,0,0,5.14-27.36c-2.65-17.7-12.15-31.4-25.82-42.52a51.86,51.86,0,0,1-5-5.41l1.09-1.22a31.09,31.09,0,0,1,3.87.35c13.45,2.93,26.8,6.37,40.35,8.73,11.59,2,23.15,1.65,32.66-7.06a12.35,12.35,0,0,0-3.16.87c-11.49,4.56-23,6.74-35.4,3.06-12.6-3.73-25.48-6.57-38.31-9.48-12.06-2.73-24.09-3.1-35.81,1.94a138.76,138.76,0,0,0-36.15,22.94c-1.57,1.37-2.63,3.33-4.34,5.54Zm100.56,2c.83,1.4,1.67,2.81,2.49,4.22,6.37,10.94,9.81,22.62,8.14,35.34-.42,3.21.28,5,3.07,6.36,3.69,1.79,7.29,3.76,10.94,5.66l-.45.92-15-5.54-2.08,9.1c5.46.76,10.65,1.84,15.88,2.12,9.2.49,10-.29,12.17-9.17.48-1.92.76-3.9,1.07-5.87,5.33-34-19.08-54.83-49.18-57.46,3.85,3.08,6.34,5.81,9.41,7.42,14.73,7.72,25.81,18.69,31.75,34.42,2.33,6.14,3.7,12.47,2.44,19.15C1008.59,537,998.2,521.49,981,510.55Zm-54.21,47L912,563.19a52,52,0,0,1,10.8-7c2.38-1.22,3-2.76,2.74-5.57-.43-5.1-1-10.53.27-15.35,2.38-9,6-17.68,8.92-25.8-16,11.24-26.25,27.3-29.5,48a14.92,14.92,0,0,1-.42-5c1.88-22,13.81-37.16,32.3-48,3.31-1.95,6-4.94,9-7.45l-.86-1.06c-13.35,2.63-25.94,7-34.82,18.13-12.76,16-14.34,33.81-7.3,52.65a3.33,3.33,0,0,0,2.47,1.88c8-.52,16.06-1.25,24.55-2C928.74,562.86,927.75,560.25,926.74,557.56Zm-34-57.73c3.28-2.17,6.55-4.35,9.85-6.51,19.16-12.56,39.73-16.44,62-10.25,12.68,3.52,25.39,7,38.13,10.21,4.24,1.08,8.65,1.47,13,2.18-1.8-1.43-3.79-1.59-5.67-2.11-12.81-3.52-25.63-7-38.39-10.71C942.25,474.12,915.89,479.94,892.75,499.83Z" transform="translate(-830 -426)"/><path d="M880.39,508.53l2.83,6.58c1.71-2.21,2.77-4.17,4.34-5.54a138.76,138.76,0,0,1,36.15-22.94c11.72-5,23.75-4.67,35.81-1.94,12.83,2.91,25.71,5.75,38.31,9.48,12.4,3.68,23.91,1.5,35.4-3.06a12.35,12.35,0,0,1,3.16-.87c-9.51,8.71-21.07,9.08-32.66,7.06-13.55-2.36-26.9-5.8-40.35-8.73a31.09,31.09,0,0,0-3.87-.35l-1.09,1.22a51.86,51.86,0,0,0,5,5.41c13.67,11.12,23.17,24.82,25.82,42.52a40.31,40.31,0,0,1-5.14,27.36c-6.45,10.93-13.58,20.91-25.44,27-10.32-8.49-21.43-16.42-27.23-29.1-5.53-12.09-5.27-24.6-.75-37a62.52,62.52,0,0,1,17.84-26.09,43.65,43.65,0,0,0,6.19-6.49,4.82,4.82,0,0,0,.38-4.07c-.33-.82-2.1-1.46-3.24-1.48-22-.46-41,6.8-56.77,22.38a68.26,68.26,0,0,1-8.7,7.41c-3.25,2.27-6.18.83-8-2.19S878,509.77,880.39,508.53Zm73.91-8.44c-19.34,22.48-20,68.23-1.13,80.47C937.93,553.28,941.25,526.61,954.3,500.09Zm4.67-1c16.26,40,16.5,48.55,2.7,82.8C980.67,565.06,979.69,522.42,959,499.06Zm-21.89,67.43c-4.74-16.69-4.89-32.37.59-48C929.25,530.19,928.78,554.3,937.08,566.49Zm40.71-.26c8.31-11.28,7.29-37.22-1.57-48.37C982.51,533.51,982.38,549.42,977.79,566.23Z" transform="translate(-830 -426)"/><path d="M981,510.55c17.25,10.94,27.64,26.4,30.67,46.67,1.26-6.68-.11-13-2.44-19.15-5.94-15.73-17-26.7-31.75-34.42-3.07-1.61-5.56-4.34-9.41-7.42,30.1,2.63,54.51,23.46,49.18,57.46-.31,2-.59,3.95-1.07,5.87-2.16,8.88-3,9.66-12.17,9.17-5.23-.28-10.42-1.36-15.88-2.12l2.08-9.1,15,5.54.45-.92c-3.65-1.9-7.25-3.87-10.94-5.66-2.79-1.36-3.49-3.15-3.07-6.36,1.67-12.72-1.77-24.4-8.14-35.34C982.62,513.36,981.78,512,981,510.55Zm33.67,26.35c0-12.5-17.43-33.08-28.59-33.65C999.92,510.89,1008.71,522.58,1014.62,536.9Z" transform="translate(-830 -426)"/><path d="M926.74,557.56c1,2.69,2,5.3,3.41,9-8.49.72-16.52,1.45-24.55,2a3.33,3.33,0,0,1-2.47-1.88c-7-18.84-5.46-36.64,7.3-52.65,8.88-11.13,21.47-15.5,34.82-18.13l.86,1.06c-3,2.51-5.65,5.5-9,7.45-18.49,10.88-30.42,26.05-32.3,48a14.92,14.92,0,0,0,.42,5c3.25-20.67,13.5-36.73,29.5-48-2.89,8.12-6.54,16.8-8.92,25.8-1.28,4.82-.7,10.25-.27,15.35.25,2.81-.36,4.35-2.74,5.57a52,52,0,0,0-10.8,7Zm-24.61-20.92c2.37-4.48,4.3-8.92,6.93-12.89a79.24,79.24,0,0,1,9.36-11.62c3.2-3.26,7.06-5.88,11.17-9.22C916.7,507,902.78,524.37,902.13,536.64Z" transform="translate(-830 -426)"/><path d="M892.75,499.83c23.14-19.89,49.5-25.71,78.91-17.19,12.76,3.7,25.58,7.19,38.39,10.71,1.88.52,3.87.68,5.67,2.11-4.33-.71-8.74-1.1-13-2.18-12.74-3.25-25.45-6.69-38.13-10.21-22.28-6.19-42.85-2.31-62,10.25C899.3,495.48,896,497.66,892.75,499.83Z" transform="translate(-830 -426)"/><path class="cls-1" d="M954.3,500.09c-13,26.52-16.37,53.19-1.13,80.47C934.3,568.32,935,522.57,954.3,500.09Z" transform="translate(-830 -426)"/><path class="cls-1" d="M959,499.06c20.72,23.36,21.7,66,2.7,82.8C975.47,547.61,975.23,539,959,499.06Z" transform="translate(-830 -426)"/><path class="cls-1" d="M937.08,566.49c-8.3-12.19-7.83-36.3.59-48C932.19,534.12,932.34,549.8,937.08,566.49Z" transform="translate(-830 -426)"/><path class="cls-1" d="M977.79,566.23c4.59-16.81,4.72-32.72-1.57-48.37C985.08,529,986.1,555,977.79,566.23Z" transform="translate(-830 -426)"/><path class="cls-1" d="M1014.62,536.9c-5.91-14.32-14.7-26-28.59-33.65C997.19,503.82,1014.6,524.4,1014.62,536.9Z" transform="translate(-830 -426)"/><path class="cls-1" d="M902.13,536.64c.65-12.27,14.57-29.62,27.46-33.73-4.11,3.34-8,6-11.17,9.22a79.24,79.24,0,0,0-9.36,11.62C906.43,527.72,904.5,532.16,902.13,536.64Z" transform="translate(-830 -426)"/></svg>