<svg width="40" height="40" viewBox="0 0 40 40" fill="none" xmlns="http://www.w3.org/2000/svg">
<mask id="mask0_9_198" style="mask-type:alpha" maskUnits="userSpaceOnUse" x="0" y="0" width="40" height="40">
<path fill-rule="evenodd" clip-rule="evenodd" d="M40 0H0V40H40V0ZM19.8496 27.3684C24.0022 27.3684 27.3684 24.0021 27.3684 19.8496C27.3684 15.6971 24.0022 12.3308 19.8496 12.3308C15.6971 12.3308 12.3308 15.6971 12.3308 19.8496C12.3308 24.0021 15.6971 27.3684 19.8496 27.3684Z" fill="#D9D9D9"/>
</mask>
<g mask="url(#mask0_9_198)">
<circle cx="20" cy="26.7669" r="13.2331" fill="#F0D400"/>
<circle cx="13.2331" cy="20" r="13.2331" transform="rotate(-90 13.2331 20)" fill="#283A73"/>
<circle cx="20" cy="13.2331" r="13.2331" fill="#4561BD"/>
<path fill-rule="evenodd" clip-rule="evenodd" d="M7.88995 32.11C9.94328 36.757 14.5929 40 20 40C27.3084 40 33.2331 34.0753 33.2331 26.7669C33.2331 21.3598 29.9901 16.7102 25.3431 14.6569C26.0652 16.2909 26.4662 18.0986 26.4662 20C26.4662 27.3084 20.5415 33.2331 13.2331 33.2331C11.3317 33.2331 9.52403 32.8321 7.88995 32.11Z" fill="#F0D400"/>
<path fill-rule="evenodd" clip-rule="evenodd" d="M40 20C40 12.6916 34.0753 6.76692 26.7669 6.76692C21.3598 6.76692 16.7102 10.0099 14.6569 14.6568C16.2909 13.9348 18.0986 13.5338 19.9999 13.5338C27.3084 13.5338 33.233 19.4585 33.233 26.7669C33.233 28.6683 32.832 30.476 32.11 32.1101C36.757 30.0568 40 25.4071 40 20Z" fill="#F0E63A"/>
</g>
</svg>
